<mxfile host="app.diagrams.net" modified="2022-11-07T13:54:47.011Z" agent="5.0 (Windows NT 10.0; Win64; x64) AppleWebKit/537.36 (KHTML, like Gecko) Chrome/107.0.0.0 Safari/537.36 Edg/107.0.1418.26" etag="UOBRcy8CouP5Z_PvADnM" version="20.5.3" type="github">
  <diagram id="gr7emVKLz7lvecgQcWgF" name="第 1 页">
    <mxGraphModel dx="1162" dy="1481" grid="0" gridSize="10" guides="1" tooltips="1" connect="1" arrows="1" fold="1" page="0" pageScale="1" pageWidth="827" pageHeight="1169" math="0" shadow="0">
      <root>
        <mxCell id="0" />
        <mxCell id="1" parent="0" />
        <mxCell id="pfAVo_9jRDzd8ldHL2-0-3" style="edgeStyle=orthogonalEdgeStyle;rounded=0;orthogonalLoop=1;jettySize=auto;html=1;exitX=0.5;exitY=1;exitDx=0;exitDy=0;entryX=0.5;entryY=0;entryDx=0;entryDy=0;" edge="1" parent="1" source="pfAVo_9jRDzd8ldHL2-0-1" target="pfAVo_9jRDzd8ldHL2-0-2">
          <mxGeometry relative="1" as="geometry" />
        </mxCell>
        <mxCell id="pfAVo_9jRDzd8ldHL2-0-1" value="" style="whiteSpace=wrap;html=1;" vertex="1" parent="1">
          <mxGeometry x="328" y="-565" width="120" height="60" as="geometry" />
        </mxCell>
        <mxCell id="pfAVo_9jRDzd8ldHL2-0-2" value="" style="whiteSpace=wrap;html=1;" vertex="1" parent="1">
          <mxGeometry x="328" y="-428" width="120" height="60" as="geometry" />
        </mxCell>
      </root>
    </mxGraphModel>
  </diagram>
</mxfile>
